<svg width="32" height="32" viewBox="0 0 32 32" fill="none" xmlns="http://www.w3.org/2000/svg">
<path d="M22.6667 22.6537C20.8667 22.6537 19.7334 23.2137 18.7334 23.7204C17.8667 24.1604 17.1601 24.5204 16.0001 24.5204C14.8001 24.5204 14.1334 24.187 13.2667 23.7204C12.2667 23.2137 11.1734 22.6537 9.33341 22.6537C7.49341 22.6537 6.40008 23.2137 5.40008 23.7204C4.82675 24.0137 4.32008 24.267 3.70675 24.4137C3.10675 24.547 2.66675 25.027 2.66675 25.627V25.7604C2.66675 26.5604 3.41341 27.1337 4.18675 26.9737C5.17341 26.7737 5.92008 26.4004 6.60008 26.0537C7.46675 25.6137 8.16008 25.2537 9.33341 25.2537C10.5067 25.2537 11.2001 25.587 12.0667 26.0537C13.0667 26.5604 14.1601 27.1204 16.0001 27.1204C17.8401 27.1204 18.9334 26.5604 19.9334 26.0537C20.8001 25.6137 21.5067 25.2537 22.6667 25.2537C23.8667 25.2537 24.5334 25.587 25.4001 26.0537C26.0934 26.4004 26.8401 26.787 27.8401 26.987C28.0202 27.0222 28.2059 27.0174 28.3839 26.9729C28.562 26.9284 28.7281 26.8454 28.8705 26.7296C29.013 26.6139 29.1283 26.4683 29.2082 26.3031C29.2882 26.1379 29.331 25.9572 29.3334 25.7737V25.6537C29.3334 25.0404 28.8801 24.5604 28.2801 24.427C27.6667 24.2937 27.1734 24.0404 26.6001 23.7337C25.6001 23.2137 24.4667 22.6537 22.6667 22.6537ZM22.6667 16.7204C20.8667 16.7204 19.7334 17.2937 18.7334 17.787C17.8667 18.2137 17.1601 18.587 16.0001 18.587C14.8001 18.587 14.1334 18.2537 13.2667 17.787C12.2667 17.2804 11.1734 16.7204 9.33341 16.7204C7.49341 16.7204 6.40008 17.2937 5.40008 17.787C4.82675 18.067 4.32008 18.3337 3.69341 18.4804C3.10675 18.6137 2.66675 19.0937 2.66675 19.6937V19.827C2.66682 20.0113 2.70798 20.1933 2.78722 20.3597C2.86645 20.5261 2.98178 20.6727 3.12481 20.7889C3.26784 20.9051 3.43498 20.988 3.61406 21.0315C3.79315 21.075 3.97968 21.078 4.16008 21.0404C5.16008 20.8404 5.90675 20.4537 6.60008 20.1204C7.46675 19.6537 8.13341 19.3204 9.33341 19.3204C10.5334 19.3204 11.2001 19.6537 12.0667 20.1204C13.0667 20.627 14.1601 21.187 16.0001 21.187C17.8401 21.187 18.9334 20.6137 19.9334 20.1204C20.8001 19.6537 21.4667 19.3204 22.6667 19.3204C23.8667 19.3204 24.5334 19.6537 25.4001 20.1204C26.0934 20.467 26.8401 20.8537 27.8401 21.0537C28.0213 21.0891 28.2081 21.0839 28.3871 21.0387C28.5661 20.9935 28.7329 20.9092 28.8756 20.792C29.0183 20.6748 29.1333 20.5276 29.2125 20.3607C29.2916 20.1939 29.3329 20.0117 29.3334 19.827V19.707C29.3334 19.0937 28.8801 18.6137 28.2801 18.4804C27.6667 18.347 27.1734 18.0937 26.6001 17.787C25.6001 17.2804 24.4667 16.7204 22.6667 16.7204ZM26.6001 5.94704C25.6001 5.44037 24.4934 4.88037 22.6667 4.88037C20.8401 4.88037 19.7334 5.44037 18.7334 5.94704C17.8667 6.3737 17.1601 6.74704 16.0001 6.74704C14.8001 6.74704 14.1334 6.4137 13.2667 5.94704C12.2667 5.4537 11.1734 4.88037 9.33341 4.88037C7.49341 4.88037 6.40008 5.44037 5.40008 5.94704C4.82675 6.24037 4.32008 6.4937 3.70675 6.64037C3.10675 6.7737 2.66675 7.2537 2.66675 7.8537V7.94704C2.66675 8.74704 3.38675 9.3337 4.16008 9.1737C5.16008 8.9737 5.90675 8.58704 6.60008 8.2537C7.46675 7.8137 8.16008 7.4537 9.33341 7.4537C10.5067 7.4537 11.2001 7.78704 12.0667 8.2537C13.0667 8.76037 14.1601 9.32037 16.0001 9.32037C17.8401 9.32037 18.9334 8.74704 19.9334 8.2537C20.8001 7.82704 21.5067 7.4537 22.6667 7.4537C23.8667 7.4537 24.5334 7.78704 25.4001 8.2537C26.0934 8.60037 26.8401 8.98704 27.8401 9.18704C28.0213 9.22239 28.2081 9.21727 28.3871 9.17204C28.5661 9.12681 28.7329 9.04258 28.8756 8.92538C29.0183 8.80818 29.1333 8.66091 29.2125 8.49408C29.2916 8.32726 29.3329 8.14501 29.3334 7.96037V7.84037C29.3334 7.22704 28.8801 6.74704 28.2801 6.6137C27.6667 6.48037 27.1734 6.24037 26.6001 5.94704ZM22.6667 10.787C20.8667 10.787 19.7334 11.3604 18.7334 11.8537C17.8667 12.3204 17.2001 12.6537 16.0001 12.6537C14.8001 12.6537 14.1334 12.3204 13.2667 11.8537C12.2667 11.347 11.1734 10.787 9.33341 10.787C7.49341 10.787 6.40008 11.3604 5.40008 11.8537C4.82675 12.1604 4.33341 12.4137 3.72008 12.547C3.12008 12.6804 2.66675 13.1604 2.66675 13.7737V13.8937C2.66682 14.078 2.70798 14.26 2.78722 14.4263C2.86645 14.5927 2.98178 14.7394 3.12481 14.8556C3.26784 14.9718 3.43498 15.0547 3.61406 15.0982C3.79315 15.1417 3.97968 15.1447 4.16008 15.107C5.16008 14.907 5.90675 14.5204 6.60008 14.187C7.46675 13.7604 8.17341 13.387 9.33341 13.387C10.4934 13.387 11.2001 13.7204 12.0667 14.187C13.0667 14.6937 14.1601 15.2537 16.0001 15.2537C17.8401 15.2537 18.9334 14.6804 19.9334 14.187C20.8001 13.7604 21.5067 13.387 22.6667 13.387C23.8667 13.387 24.5334 13.7204 25.4001 14.187C26.0934 14.5337 26.8401 14.9204 27.8401 15.1204C28.0202 15.1555 28.2059 15.1507 28.3839 15.1062C28.562 15.0618 28.7281 14.9787 28.8705 14.863C29.013 14.7473 29.1283 14.6016 29.2082 14.4365C29.2882 14.2713 29.331 14.0905 29.3334 13.907V13.787C29.3334 13.1737 28.8801 12.6937 28.2801 12.5604C27.6667 12.427 27.1734 12.1737 26.6001 11.867C25.6001 11.347 24.4667 10.787 22.6667 10.787Z" fill="url(#paint0_linear_122_137)"/>
<defs>
<linearGradient id="paint0_linear_122_137" x1="16.0001" y1="4.88037" x2="16.0001" y2="27.1204" gradientUnits="userSpaceOnUse">
<stop stop-color="#FFBF00"/>
<stop offset="1" stop-color="#F2A60C"/>
</linearGradient>
</defs>
</svg>
