<svg width="32" height="32" viewBox="0 0 32 32" fill="none" xmlns="http://www.w3.org/2000/svg">
<path d="M16 10.6668C13.0534 10.6668 10.6667 13.0535 10.6667 16.0002C10.6667 18.9468 13.0534 21.3335 16 21.3335C18.9467 21.3335 21.3334 18.9468 21.3334 16.0002C21.3334 13.0535 18.9467 10.6668 16 10.6668ZM27.92 14.6668C27.618 11.963 26.4056 9.44221 24.4818 7.51842C22.558 5.59463 20.0372 4.38218 17.3334 4.08016V2.66683C17.3334 1.9335 16.7334 1.3335 16 1.3335C15.2667 1.3335 14.6667 1.9335 14.6667 2.66683V4.08016C11.9629 4.38218 9.44209 5.59463 7.5183 7.51842C5.59451 9.44221 4.38206 11.963 4.08004 14.6668H2.66671C1.93337 14.6668 1.33337 15.2668 1.33337 16.0002C1.33337 16.7335 1.93337 17.3335 2.66671 17.3335H4.08004C4.38206 20.0373 5.59451 22.5581 7.5183 24.4819C9.44209 26.4057 11.9629 27.6181 14.6667 27.9202V29.3335C14.6667 30.0668 15.2667 30.6668 16 30.6668C16.7334 30.6668 17.3334 30.0668 17.3334 29.3335V27.9202C20.0372 27.6181 22.558 26.4057 24.4818 24.4819C26.4056 22.5581 27.618 20.0373 27.92 17.3335H29.3334C30.0667 17.3335 30.6667 16.7335 30.6667 16.0002C30.6667 15.2668 30.0667 14.6668 29.3334 14.6668H27.92ZM16 25.3335C10.84 25.3335 6.66671 21.1602 6.66671 16.0002C6.66671 10.8402 10.84 6.66683 16 6.66683C21.16 6.66683 25.3334 10.8402 25.3334 16.0002C25.3334 21.1602 21.16 25.3335 16 25.3335Z" fill="url(#paint0_linear_122_128)"/>
<defs>
<linearGradient id="paint0_linear_122_128" x1="16" y1="1.3335" x2="16" y2="30.6668" gradientUnits="userSpaceOnUse">
<stop stop-color="#FFBF00"/>
<stop offset="1" stop-color="#F2A60C"/>
</linearGradient>
</defs>
</svg>
