<svg width="32" height="32" viewBox="0 0 32 32" fill="none" xmlns="http://www.w3.org/2000/svg">
<path d="M25.9465 13.3333C25.815 13.5277 25.7371 13.7534 25.7207 13.9875C25.7043 14.2216 25.75 14.4559 25.8532 14.6667C26.1838 15.4387 26.4172 16.2493 26.5465 17.08C26.8897 19.2269 26.5687 21.4273 25.6265 23.3867C25.5121 23.6016 25.341 23.7811 25.1318 23.9056C24.9226 24.0302 24.6833 24.0951 24.4398 24.0933H7.57317C7.32834 24.0938 7.08809 24.0269 6.87877 23.8999C6.66944 23.7729 6.49913 23.5907 6.38651 23.3733C5.53301 21.6419 5.16536 19.7113 5.32275 17.7874C5.48014 15.8635 6.15667 14.0183 7.28022 12.4487C8.40376 10.879 9.93221 9.64362 11.7026 8.87426C13.473 8.1049 15.419 7.8304 17.3332 8.08C18.3017 8.19384 19.249 8.44526 20.1465 8.82667C20.3573 8.92983 20.5916 8.97553 20.8257 8.95914C21.0598 8.94275 21.2855 8.86486 21.4798 8.73334C21.6823 8.59993 21.8446 8.41382 21.9492 8.19504C22.0538 7.97626 22.0968 7.73309 22.0735 7.49172C22.0502 7.25034 21.9615 7.01989 21.8169 6.82518C21.6724 6.63046 21.4775 6.47886 21.2532 6.38667C18.6774 5.28221 15.8192 5.01745 13.0844 5.63C10.3496 6.24255 7.87737 7.70126 6.01885 9.79891C4.16033 11.8966 3.01004 14.5265 2.73137 17.3152C2.45271 20.1038 3.05983 22.9094 4.46651 25.3333C4.69919 25.7364 5.03329 26.0715 5.43562 26.3054C5.83794 26.5393 6.29447 26.6639 6.75984 26.6667H25.2265C25.6964 26.6685 26.1584 26.5462 26.5659 26.3121C26.9733 26.0779 27.3116 25.7403 27.5465 25.3333C28.5763 23.5486 29.1785 21.5494 29.3058 19.4928C29.433 17.4362 29.0818 15.3781 28.2798 13.48C28.1783 13.2637 28.0204 13.0786 27.8228 12.9442C27.6252 12.8098 27.3951 12.731 27.1566 12.716C26.9181 12.701 26.6799 12.7504 26.467 12.859C26.2542 12.9676 26.0744 13.1314 25.9465 13.3333Z" fill="url(#paint0_linear_122_134)"/>
<path d="M14.1201 16.7874C13.6197 17.2878 13.3386 17.9664 13.3386 18.6741C13.3386 19.0244 13.4076 19.3714 13.5417 19.6951C13.6758 20.0188 13.8723 20.313 14.1201 20.5607C14.3679 20.8085 14.662 21.005 14.9857 21.1391C15.3094 21.2732 15.6564 21.3422 16.0068 21.3422C16.7144 21.3422 17.3931 21.0611 17.8934 20.5607L25.4401 9.24072L14.1201 16.7874Z" fill="url(#paint1_linear_122_134)"/>
<defs>
<linearGradient id="paint0_linear_122_134" x1="15.9982" y1="5.30762" x2="15.9982" y2="26.6667" gradientUnits="userSpaceOnUse">
<stop stop-color="#FFBF00"/>
<stop offset="1" stop-color="#F2A60C"/>
</linearGradient>
<linearGradient id="paint1_linear_122_134" x1="19.3894" y1="9.24072" x2="19.3894" y2="21.3422" gradientUnits="userSpaceOnUse">
<stop stop-color="#FFBF00"/>
<stop offset="1" stop-color="#F2A60C"/>
</linearGradient>
</defs>
</svg>
