<svg width="32" height="32" viewBox="0 0 32 32" fill="none" xmlns="http://www.w3.org/2000/svg">
<g clip-path="url(#clip0_154_158)">
<circle cx="16" cy="16" r="16" fill="white"/>
<path d="M23.5833 13.5835H22.695L20.8533 8.5135C20.7009 8.09544 20.4239 7.7342 20.0597 7.4785C19.6955 7.22279 19.2617 7.08493 18.8167 7.0835H17.0833C16.4875 7.0835 16 7.571 16 8.16683C16 8.76266 16.4875 9.25016 17.0833 9.25016H18.8167L20.3983 13.5835H15.1875L14.7975 12.5002H14.895C15.4908 12.5002 15.9783 12.0127 15.9783 11.4168C15.9783 10.821 15.4908 10.3335 14.895 10.3335H11.6667C11.0708 10.3335 10.5833 10.821 10.5833 11.4168C10.5833 12.0127 11.0708 12.5002 11.6667 12.5002H12.4792L14.4508 17.9168H13.725C13.2483 15.501 11.2225 13.7135 8.6875 13.5943C5.65417 13.4427 3 15.9668 3 19.0002C3 22.0335 5.38333 24.4168 8.41667 24.4168C11.0817 24.4168 13.2375 22.586 13.725 20.0835H18.275C18.7517 22.4993 20.7775 24.2868 23.3125 24.406C26.3458 24.5468 29 22.0335 29 18.9893C29 15.9668 26.6167 13.5835 23.5833 13.5835ZM9.5 20.0835H11.4717C11.0167 21.416 9.73833 22.3368 8.2 22.2393C6.58583 22.1418 5.2425 20.7768 5.16667 19.1518C5.09083 17.256 6.5425 15.7502 8.41667 15.7502C9.8575 15.7502 11.0383 16.6493 11.4717 17.9168H9.5C8.90417 17.9168 8.41667 18.4043 8.41667 19.0002C8.41667 19.596 8.90417 20.0835 9.5 20.0835ZM18.275 17.9168H16.7583L15.9675 15.7502H19.25C18.7733 16.3785 18.4267 17.1043 18.275 17.9168ZM23.4533 22.2502C21.785 22.1852 20.3767 20.766 20.3333 19.0868C20.3117 18.0468 20.7558 17.1368 21.4708 16.5302L22.1425 18.3718C22.3483 18.9352 22.9658 19.2277 23.5292 19.0218C24.0925 18.816 24.385 18.1985 24.1792 17.6352L23.4967 15.761L23.5075 15.7502C23.9418 15.7354 24.3747 15.8087 24.7799 15.9658C25.1851 16.1229 25.5543 16.3605 25.8651 16.6643C26.1759 16.968 26.422 17.3316 26.5884 17.7331C26.7548 18.1346 26.8381 18.5656 26.8333 19.0002C26.8333 20.8635 25.3383 22.3152 23.4533 22.2502Z" fill="url(#paint0_linear_154_158)"/>
</g>
<defs>
<linearGradient id="paint0_linear_154_158" x1="16" y1="7.0835" x2="16" y2="24.4168" gradientUnits="userSpaceOnUse">
<stop stop-color="#FFB60D"/>
<stop offset="1" stop-color="#E59317"/>
</linearGradient>
<clipPath id="clip0_154_158">
<rect width="32" height="32" fill="white"/>
</clipPath>
</defs>
</svg>
